<svg width="64" height="65" viewBox="0 0 64 65" fill="none" role="img" xmlns="http://www.w3.org/2000/svg">
<title>Cookiebannerbench</title>
<rect width="64" height="64.1266" fill="white"/>
<path fill-rule="evenodd" clip-rule="evenodd" d="M37.6325 7.15501C36.1137 11.8126 39.1513 14.8502 44.2139 13.3314C43.2014 18.394 47.2515 21.4316 51.8078 18.6472L45.2264 24.4692C42.0876 19.5078 37.4806 16.8752 32.0636 16.8752C23.6753 16.8752 16.8757 23.6749 16.8757 32.0631C16.8757 40.4514 23.6753 47.251 32.0636 47.251C39.6069 47.251 45.8846 41.7327 47.0388 34.5944H57.2502C55.9592 47.4029 45.1505 57.3762 32.0636 57.3762C18.0837 57.3762 6.75049 46.043 6.75049 32.0631C6.75049 18.0832 18.0837 6.75 32.0636 6.75C33.9368 6.75 35.8099 6.89175 37.6325 7.15501ZM15.3569 18.9003C15.3569 19.5716 15.6236 20.2155 16.0984 20.6902C16.5731 21.1649 17.2169 21.4316 17.8883 21.4316C18.5596 21.4316 19.2035 21.1649 19.6782 20.6902C20.1529 20.2155 20.4196 19.5716 20.4196 18.9003C20.4196 18.229 20.1529 17.5851 19.6782 17.1104C19.2035 16.6357 18.5596 16.369 17.8883 16.369C17.2169 16.369 16.5731 16.6357 16.0984 17.1104C15.6236 17.5851 15.3569 18.229 15.3569 18.9003ZM16.3695 48.2635C16.3695 48.9349 16.6362 49.5787 17.1109 50.0534C17.5856 50.5281 18.2294 50.7948 18.9008 50.7948C19.5721 50.7948 20.216 50.5281 20.6907 50.0534C21.1654 49.5787 21.4321 48.9349 21.4321 48.2635C21.4321 47.5922 21.1654 46.9483 20.6907 46.4736C20.216 45.9989 19.5721 45.7322 18.9008 45.7322C18.2294 45.7322 17.5856 45.9989 17.1109 46.4736C16.6362 46.9483 16.3695 47.5922 16.3695 48.2635Z" fill="#0C1B13"/>
<path d="M40.2649 23.9125C41.0749 23.3556 41.8343 24.1656 41.2268 24.9756L32.4178 37.1259C31.0509 38.9991 28.874 39.2016 27.4058 37.6828C25.9376 36.164 26.2414 34.0377 28.1146 32.7214L40.2649 23.9125Z" fill="#0C1B13"/>
</svg>
